Coordinates
version=1
nRows=18
nColumns=22
inDegrees=yes

Units are S.I. units (second, meters, Newtons, ...)
If the header above contains a line with 'inDegrees', this indicates whether rotational values are in degrees (yes) or radians (no).

endheader
time	pelvis_tilt	pelvis_list	pelvis_rotation	pelvis_tx	pelvis_ty	pelvis_tz	hip_flexion_r	hip_adduction_r	hip_rotation_r	knee_angle_r	ankle_angle_r	subtalar_angle_r	hip_flexion_l	hip_adduction_l	hip_rotation_l	knee_angle_l	ankle_angle_l	subtalar_angle_l	lumbar_extension	lumbar_bending	lumbar_rotation
      0.01000000	     -1.09650764	     -5.54328225	      0.91862788	      0.06350854	      1.02111117	      1.33840499	      0.59454866	      2.95902142	     -7.47940832	     -9.64188536	      7.93455462	      1.27197594	     -2.15474038	     -9.25642461	    -15.92282509	     -7.52025295	     10.06055265	     -1.31753985	     -2.31305670	      2.59249302	     -2.65172258
      0.02000000	     -1.09845037	     -5.54356578	      0.90395459	      0.06356763	      1.02110450	      1.33839948	      0.59165949	      2.95770745	     -7.47877412	     -9.63914798	      7.93403069	      1.27368488	     -2.15959695	     -9.25411953	    -15.92304784	     -7.52238603	     10.06126584	     -1.31714540	     -2.31230518	      2.59778159	     -2.66242305
      0.03000000	     -1.09824338	     -5.54517860	      0.89270132	      0.06365406	      1.02110023	      1.33837740	      0.57907006	      2.95823007	     -7.45025270	     -9.62733762	      7.93152817	      1.28285479	     -2.17478113	     -9.25120675	    -15.94717414	     -7.50786788	     10.06753278	     -1.31625386	     -2.31038142	      2.61075461	     -2.71136918
      0.04000000	     -1.09412221	     -5.54955392	      0.87146473	      0.06373429	      1.02110528	      1.33839234	      0.55746380	      2.96426981	     -7.41467256	     -9.60341439	      7.92823354	      1.29720637	     -2.19257169	     -9.25397316	    -15.97374365	     -7.50189615	     10.07150768	     -1.31457775	     -2.31805485	      2.62080661	     -2.74226909
      0.05000000	     -1.09715687	     -5.55005107	      0.85018405	      0.06379657	      1.02109730	      1.33840192	      0.55559604	      2.96327647	     -7.41422900	     -9.59868642	      7.92797285	      1.29864920	     -2.19796543	     -9.25258056	    -15.97393486	     -7.50569280	     10.07173224	     -1.31433075	     -2.32048338	      2.62546800	     -2.75166892
      0.06000000	     -1.07910486	     -5.56236808	      0.81247105	      0.06389809	      1.02112395	      1.33844276	      0.51023429	      2.98024284	     -7.33834024	     -9.55766249	      7.91470788	      1.32976196	     -2.23765198	     -9.26416764	    -16.04219165	     -7.49692055	     10.08057253	     -1.30956216	     -2.34291221	      2.64763295	     -2.76629115
      0.07000000	     -1.08366666	     -5.56266766	      0.79004514	      0.06394732	      1.02111505	      1.33846050	      0.51248452	      2.97921871	     -7.33984276	     -9.55487298	      7.91435065	      1.33048637	     -2.24230936	     -9.26250927	    -16.04251374	     -7.49739895	     10.08143643	     -1.30926969	     -2.34792735	      2.65135219	     -2.77998535
      0.08000000	     -1.08756930	     -5.56299533	      0.76898127	      0.06402187	      1.02110731	      1.33846098	      0.51270811	      2.97750331	     -7.32292806	     -9.55625592	      7.91138003	      1.33382839	     -2.25480621	     -9.25864407	    -16.06849461	     -7.48317132	     10.08755082	     -1.30851186	     -2.34784486	      2.66329312	     -2.82517334
      0.09000000	     -1.09301873	     -5.56311740	      0.74752512	      0.06406412	      1.02109761	      1.33848535	      0.51450073	      2.97741296	     -7.32370428	     -9.54964200	      7.91171756	      1.33450387	     -2.25696225	     -9.25769001	    -16.07071759	     -7.48470342	     10.08810019	     -1.30824978	     -2.35385701	      2.66564556	     -2.83621019
      0.10000000	     -1.09965198	     -5.56307019	      0.72454563	      0.06413001	      1.02108874	      1.33849668	      0.51322732	      2.97692379	     -7.30006120	     -9.54061711	      7.90927111	      1.33871323	     -2.26278821	     -9.25527280	    -16.10938373	     -7.47711604	     10.09357421	     -1.30707788	     -2.35353148	      2.67492117	     -2.87466993
      0.11000000	     -1.10528471	     -5.56201422	      0.70452664	      0.06417249	      1.02108080	      1.33850417	      0.51481403	      2.97529492	     -7.30081831	     -9.53500790	      7.90948206	      1.33917748	     -2.26373255	     -9.25188276	    -16.11073813	     -7.47977745	     10.09382697	     -1.30677658	     -2.35912487	      2.68082927	     -2.88282575
      0.12000000	     -1.11448367	     -5.55777601	      0.68235829	      0.06422767	      1.02106836	      1.33850380	      0.51817395	      2.97027878	     -7.27455426	     -9.52889943	      7.90705992	      1.34258137	     -2.26502797	     -9.24403823	    -16.14788490	     -7.47378126	     10.09842073	     -1.30583547	     -2.35753460	      2.68760027	     -2.91449064
      0.13000000	     -1.12066261	     -5.55547853	      0.66561549	      0.06426709	      1.02105825	      1.33848936	      0.52030837	      2.96665729	     -7.27430855	     -9.52347907	      7.90760577	      1.34279282	     -2.26466211	     -9.23812832	    -16.14921888	     -7.47578460	     10.09852129	     -1.30556750	     -2.36346048	      2.69603436	     -2.92020602
      0.14000000	     -1.13307880	     -5.54379570	      0.64363236	      0.06433072	      1.02104015	      1.33847087	      0.52686026	      2.95279568	     -7.24021458	     -9.51899813	      7.90836550	      1.34418997	     -2.26471877	     -9.22049008	    -16.18382652	     -7.46724918	     10.10224821	     -1.30548662	     -2.35691769	      2.69783496	     -2.94742164
      0.15000000	     -1.14843058	     -5.52696695	      0.61337189	      0.06439243	      1.02101760	      1.33845995	      0.53712327	      2.93329200	     -7.20014301	     -9.51489795	      7.91580000	      1.34402510	     -2.26107686	     -9.19700325	    -16.21491447	     -7.46436189	     10.10065048	     -1.30483315	     -2.34830405	      2.69292834	     -2.94478667
      0.16000000	     -1.15567048	     -5.52452640	      0.60457687	      0.06443283	      1.02100470	      1.33842858	      0.54089095	      2.92950782	     -7.19908325	     -9.51114543	      7.91712402	      1.34371583	     -2.25879344	     -9.19068598	    -16.21623326	     -7.46271510	     10.10047042	     -1.30465539	     -2.35721257	      2.70131356	     -2.94651305
      0.17000000	     -1.17695021	     -5.50288350	      0.56840021	      0.06450217	      1.02097512	      1.33843149	      0.56332691	      2.90514120	     -7.13925707	     -9.52037092	      7.93797611	      1.33765694	     -2.25592863	     -9.16055243	    -16.25911990	     -7.44759671	     10.09365298	     -1.30495220	     -2.34400539	      2.68913255	     -2.93081317
      0.18000000	     -1.18283227	     -5.50062924	      0.56066833	      0.06458258	      1.02096536	      1.33839505	      0.56462390	      2.90073789	     -7.13799962	     -9.52011885	      7.93856063	      1.33728172	     -2.25686023	     -9.15454069	    -16.25998390	     -7.44809662	     10.09369313	     -1.30485846	     -2.34783311	      2.70024359	     -2.93418200
